<?xml version="1.0" standalone="no"?>
<!DOCTYPE svg PUBLIC "-//W3C//DTD SVG 20010904//EN"
 "http://www.w3.org/TR/2001/REC-SVG-20010904/DTD/svg10.dtd">
<svg version="1.0" xmlns="http://www.w3.org/2000/svg"
 width="512.000000pt" height="512.000000pt" viewBox="0 0 512.000000 512.000000"
 preserveAspectRatio="xMidYMid meet">
<metadata>
Created by potrace 1.11, written by Peter Selinger 2001-2013
</metadata>
<g transform="translate(0.000000,512.000000) scale(0.100000,-0.100000)"
fill="#000000" stroke="none">
<path d="M4455 5110 c-107 -22 -193 -68 -278 -149 -177 -169 -220 -413 -114
-651 5 -11 -124 -146 -450 -472 l-458 -458 -45 31 c-208 140 -487 163 -714 58
-33 -15 -81 -42 -106 -58 l-45 -31 -357 357 -356 356 21 46 c16 36 21 67 21
141 1 83 -2 102 -26 152 -37 80 -105 149 -181 184 -55 26 -73 29 -157 29 -82
0 -103 -4 -152 -27 -213 -100 -284 -361 -148 -551 99 -138 286 -192 439 -127
l53 23 355 -356 356 -355 -34 -53 c-84 -131 -119 -251 -119 -407 0 -155 40
-291 121 -408 l32 -46 -591 -591 -590 -590 -39 30 c-120 95 -297 135 -455 102
-200 -41 -374 -215 -423 -422 -68 -287 114 -585 405 -662 72 -19 200 -19 275
0 329 85 506 435 379 750 l-24 60 595 595 595 595 27 -18 c90 -57 196 -103
283 -121 l55 -12 3 -471 2 -471 -67 -21 c-182 -55 -324 -199 -380 -383 -25
-82 -23 -227 4 -313 53 -169 185 -303 359 -367 87 -32 253 -32 346 0 229 79
383 289 382 522 0 107 -17 176 -62 264 -70 134 -190 234 -335 277 l-67 20 2
471 3 470 75 19 c70 18 200 75 263 116 l27 18 355 -356 356 -355 -23 -49 c-19
-41 -23 -67 -23 -145 0 -84 3 -102 28 -152 140 -286 535 -284 671 2 28 58 31
75 31 155 0 82 -3 97 -32 155 -75 152 -227 232 -393 207 -30 -4 -72 -16 -92
-26 l-36 -18 -357 357 -357 357 35 54 c80 125 117 253 117 404 0 151 -38 277
-122 408 l-31 49 448 448 449 449 45 -33 c186 -136 429 -148 622 -31 64 40
154 131 192 196 127 216 90 495 -89 673 -129 130 -326 191 -499 156z m260
-213 c78 -36 146 -104 182 -181 24 -53 28 -73 28 -156 0 -88 -3 -101 -33 -162
-49 -100 -129 -166 -237 -194 -270 -72 -523 181 -451 451 16 63 30 89 73 142
42 52 80 80 152 110 80 34 201 29 286 -10z m-3429 -446 c136 -62 144 -257 14
-330 -80 -45 -200 -15 -245 62 -75 127 14 285 160 286 17 0 49 -8 71 -18z
m1543 -1116 c152 -36 294 -148 364 -286 85 -169 86 -341 3 -507 -95 -189 -282
-304 -496 -304 -498 0 -745 602 -390 951 135 134 334 189 519 146z m1437
-1864 c43 -19 86 -68 99 -110 4 -14 7 -44 7 -68 -3 -140 -170 -222 -287 -142
-89 61 -107 188 -38 270 55 64 143 85 219 50z m-3568 -383 c75 -28 161 -111
198 -190 25 -55 29 -75 29 -153 0 -78 -4 -98 -29 -152 -33 -73 -113 -154 -181
-184 -188 -83 -401 -5 -492 179 -25 51 -28 68 -28 157 0 89 3 106 28 157 87
178 286 255 475 186z m2111 -177 c323 -101 351 -545 43 -689 -49 -23 -70 -27
-152 -27 -82 0 -103 4 -152 27 -255 119 -295 460 -72 631 94 72 219 94 333 58z"/>
</g>
</svg>
